<svg xmlns="http://www.w3.org/2000/svg" data-sprite-id="db-sprite-icons">
  <!-- DULBAN LIB · UI-иконки вместо эмодзи. viewBox 0 0 24 24, штрих currentColor.
       Использование: DulbanSVG.icon('bolt', {size:18}) или <svg><use href="#db-icon-bolt"/></svg> -->
  <defs>
    <symbol id="db-icon-gear" viewBox="0 0 24 24">
      <circle cx="12" cy="12" r="3" fill="none" stroke="currentColor" stroke-width="2"/>
      <path d="M19.4 15a1.65 1.65 0 0 0 .33 1.82l.06.06a2 2 0 0 1-2.83 2.83l-.06-.06a1.65 1.65 0 0 0-1.82-.33 1.65 1.65 0 0 0-1 1.51V21a2 2 0 0 1-4 0v-.09A1.65 1.65 0 0 0 9 19.4a1.65 1.65 0 0 0-1.82.33l-.06.06a2 2 0 0 1-2.83-2.83l.06-.06a1.65 1.65 0 0 0 .33-1.82 1.65 1.65 0 0 0-1.51-1H3a2 2 0 0 1 0-4h.09A1.65 1.65 0 0 0 4.6 9a1.65 1.65 0 0 0-.33-1.82l-.06-.06a2 2 0 0 1 2.83-2.83l.06.06a1.65 1.65 0 0 0 1.82.33H9a1.65 1.65 0 0 0 1-1.51V3a2 2 0 0 1 4 0v.09a1.65 1.65 0 0 0 1 1.51 1.65 1.65 0 0 0 1.82-.33l.06-.06a2 2 0 0 1 2.83 2.83l-.06.06a1.65 1.65 0 0 0-.33 1.82V9a1.65 1.65 0 0 0 1.51 1H21a2 2 0 0 1 0 4h-.09a1.65 1.65 0 0 0-1.51 1z" fill="none" stroke="currentColor" stroke-width="2" stroke-linejoin="round"/>
    </symbol>
    <symbol id="db-icon-close" viewBox="0 0 24 24">
      <path d="M18 6 6 18 M6 6l12 12" fill="none" stroke="currentColor" stroke-width="2" stroke-linecap="round"/>
    </symbol>
    <symbol id="db-icon-check" viewBox="0 0 24 24">
      <path d="M20 6 9 17l-5-5" fill="none" stroke="currentColor" stroke-width="2" stroke-linecap="round" stroke-linejoin="round"/>
    </symbol>
    <symbol id="db-icon-bolt" viewBox="0 0 24 24">
      <path d="M13 2 3 14h9l-1 8 10-12h-9l1-8z" fill="none" stroke="currentColor" stroke-width="2" stroke-linejoin="round"/>
    </symbol>
    <symbol id="db-icon-eye" viewBox="0 0 24 24">
      <path d="M1 12s4-8 11-8 11 8 11 8-4 8-11 8-11-8-11-8z" fill="none" stroke="currentColor" stroke-width="2" stroke-linejoin="round"/>
      <circle cx="12" cy="12" r="3" fill="none" stroke="currentColor" stroke-width="2"/>
    </symbol>
    <symbol id="db-icon-heart" viewBox="0 0 24 24">
      <path d="M20.84 4.61a5.5 5.5 0 0 0-7.78 0L12 5.67l-1.06-1.06a5.5 5.5 0 0 0-7.78 7.78l1.06 1.06L12 21.23l7.78-7.78 1.06-1.06a5.5 5.5 0 0 0 0-7.78z" fill="none" stroke="currentColor" stroke-width="2" stroke-linejoin="round"/>
    </symbol>
    <symbol id="db-icon-star" viewBox="0 0 24 24">
      <path d="M12 2l3.09 6.26L22 9.27l-5 4.87L18.18 21 12 17.77 5.82 21 7 14.14 2 9.27l6.91-1.01L12 2z" fill="none" stroke="currentColor" stroke-width="2" stroke-linejoin="round"/>
    </symbol>
    <symbol id="db-icon-arrow" viewBox="0 0 24 24">
      <path d="M5 12h14 M12 5l7 7-7 7" fill="none" stroke="currentColor" stroke-width="2" stroke-linecap="round" stroke-linejoin="round"/>
    </symbol>
    <symbol id="db-icon-download" viewBox="0 0 24 24">
      <path d="M21 15v4a2 2 0 0 1-2 2H5a2 2 0 0 1-2-2v-4 M7 10l5 5 5-5 M12 15V3" fill="none" stroke="currentColor" stroke-width="2" stroke-linecap="round" stroke-linejoin="round"/>
    </symbol>
    <symbol id="db-icon-sliders" viewBox="0 0 24 24">
      <path d="M4 21v-7 M4 10V3 M12 21v-9 M12 8V3 M20 21v-5 M20 12V3 M1 14h6 M9 8h6 M17 16h6" fill="none" stroke="currentColor" stroke-width="2" stroke-linecap="round"/>
    </symbol>
    <symbol id="db-icon-play" viewBox="0 0 24 24">
      <path d="M6 3l14 9-14 9V3z" fill="none" stroke="currentColor" stroke-width="2" stroke-linejoin="round"/>
    </symbol>
    <symbol id="db-icon-crosshair" viewBox="0 0 24 24">
      <circle cx="12" cy="12" r="9" fill="none" stroke="currentColor" stroke-width="2"/>
      <path d="M22 12h-4 M6 12H2 M12 6V2 M12 22v-4" fill="none" stroke="currentColor" stroke-width="2" stroke-linecap="round"/>
    </symbol>
  </defs>
</svg>
